<svg xmlns="http://www.w3.org/2000/svg" width="748.595" height="886.47" viewBox="0 0 748.595 886.47">
  <g id="Group_69" data-name="Group 69" transform="translate(-305.58 -148.728)">
    <g id="Group_1" data-name="Group 1" transform="translate(511.437 411.02)">
      <path id="Path_60" data-name="Path 60" d="M125.046,163.909a312.056,312.056,0,0,0,32.976,45.345,219.679,219.679,0,0,0,19.651,19.781A134.507,134.507,0,0,0,199.85,245.2c7.859,4.43,16.18,8.043,24.772,9.457,8.29,1.424,17.895,1.008,26.9.234a108.039,108.039,0,0,0,26.349-5.664,73.438,73.438,0,0,0,22.712-12.977c1.72-1.33,3.185-2.946,4.773-4.419a43.359,43.359,0,0,0,3.991-4.749,31.989,31.989,0,0,0,5.183-10.467c.808-3.51.7-6.643-.733-8.95a11.274,11.274,0,0,0-2.894-3.331c-.639-.5-1.429-.935-2.112-1.437-.738-.353-1.47-.629-2.182-.992a13.017,13.017,0,0,0-9.15.148,25.62,25.62,0,0,0-9.109,6.139,37.648,37.648,0,0,0-6.892,9.628,26.557,26.557,0,0,0-2.879,10.566,76.863,76.863,0,0,0,4.515,25.31,92.384,92.384,0,0,0,11.852,23.327,70.372,70.372,0,0,0,8.254,9.641A108.662,108.662,0,0,0,313.46,295c7.428,5.484,15.51,10.893,23.268,17.443a91.717,91.717,0,0,1,11.184,11.114,51.306,51.306,0,0,1,8.727,14.785,40.049,40.049,0,0,1,2.154,18.059,41.556,41.556,0,0,1-.733,4.424,26.109,26.109,0,0,1-1.226,4.333L355.21,369.5c-.688,1.372-1.483,2.694-2.247,4.032-.4.657-.766,1.346-1.2,1.969l-1.4,1.772c-.951,1.148-1.855,2.4-2.881,3.435a57,57,0,0,1-6.4,5.671,91.151,91.151,0,0,1-13.421,8.423c-8.867,4.676-17.669,8.337-25.006,12.725a55.017,55.017,0,0,0-9.646,7.033,47.046,47.046,0,0,0-6.838,9.223,56.346,56.346,0,0,0-7.178,22.951A69.743,69.743,0,0,0,281.1,471.5a101.788,101.788,0,0,0,3.913,12.4c.824,2.016,1.411,4.11,2.414,6.064l2.829,5.921a63.7,63.7,0,0,0,3.154,5.781c1.133,1.889,2.13,3.845,3.359,5.687,2.546,3.629,4.814,7.42,7.68,10.86l4.113,5.266,4.443,5.04,2.216,2.523,2.362,2.411,4.734,4.812A262.615,262.615,0,0,0,365.423,571.5,308.568,308.568,0,0,0,414.382,596a300.538,300.538,0,0,0,52.505,15.12,12.99,12.99,0,1,1-4.882,25.517c-.06-.01-.192-.039-.252-.052a325.686,325.686,0,0,1-56.647-17.505,332.493,332.493,0,0,1-52.412-27.495,285.744,285.744,0,0,1-46.343-37.219l-5.165-5.453-2.569-2.738-2.442-2.876-4.869-5.76-4.557-6.056c-3.136-3.952-5.723-8.368-8.529-12.59-1.364-2.143-2.51-4.443-3.77-6.659-1.206-2.252-2.543-4.422-3.536-6.8l-3.18-7.012c-1.109-2.31-1.811-4.822-2.728-7.228a122.784,122.784,0,0,1-4.362-14.866,90.394,90.394,0,0,1-1.982-31.812,76.579,76.579,0,0,1,10.374-30.856A66.87,66.87,0,0,1,279.5,400.313a73.975,73.975,0,0,1,13.481-9.55c9.129-5.16,18.038-8.6,26.053-12.67a73.2,73.2,0,0,0,10.849-6.474,39.449,39.449,0,0,0,4.352-3.668c.67-.631,1.13-1.348,1.722-2l.86-.992c.247-.348.423-.725.644-1.081l1.3-2.146q.421-1.181.894-2.336a11.585,11.585,0,0,0,.782-2.494,23.321,23.321,0,0,0,.494-2.593,22.069,22.069,0,0,0-.977-10.031c-2.245-6.609-7.828-13.039-14.44-18.848-6.664-5.866-14.294-11.223-22.054-17.17a123.605,123.605,0,0,1-11.644-9.893,86.5,86.5,0,0,1-10.046-12.179,108.144,108.144,0,0,1-13.385-27.606,91.535,91.535,0,0,1-4.744-30.685,41.07,41.07,0,0,1,4.726-16.7,51.98,51.98,0,0,1,9.893-13.273,39.584,39.584,0,0,1,14.606-9.225,27.1,27.1,0,0,1,18.732.288c1.429.665,2.889,1.322,4.248,2.078,1.255.868,2.525,1.658,3.726,2.647a24.9,24.9,0,0,1,6.181,7.529,22.7,22.7,0,0,1,1.886,4.687,25.728,25.728,0,0,1,.764,4.879,29.075,29.075,0,0,1-1.018,9.186,44.875,44.875,0,0,1-7.581,14.842,56.717,56.717,0,0,1-5.295,6.056c-1.915,1.735-3.715,3.6-5.783,5.157a85.942,85.942,0,0,1-26.819,14.676,119.885,119.885,0,0,1-29.378,5.757c-4.936.423-9.859.483-14.764.462-2.46-.07-4.843-.057-7.5-.34-1.294-.13-2.6-.179-3.879-.382l-3.817-.675c-10.181-1.91-19.5-6.222-28.05-11.265a144.564,144.564,0,0,1-23.512-17.817,228.448,228.448,0,0,1-20.124-21.049,320.1,320.1,0,0,1-33.111-47.45,4.163,4.163,0,0,1,7.189-4.2Z" transform="translate(-117.226 -161.742)" fill="#f7c500"/>
      <g id="Group_29" data-name="Group 29" transform="translate(0.548 2.167)">
        <path id="Path_61" data-name="Path 61" d="M124.709,162.576l2.6,4.315-7.209,4.366-2.66-4.623Z" transform="translate(-117.437 -162.576)" fill="#dda800"/>
        <path id="Path_62" data-name="Path 62" d="M127.807,167.541l5.819,8.413-7.233,5.064-5.806-8.751Z" transform="translate(-112.403 -154.643)" fill="#dda800"/>
        <path id="Path_63" data-name="Path 63" d="M132.392,173.945l6.332,8.016-7.2,5.772-6.359-8.38Z" transform="translate(-105.093 -144.408)" fill="#dda800"/>
        <path id="Path_64" data-name="Path 64" d="M137.312,180.024l6.875,7.5-7.028,6.585-6.985-7.924Z" transform="translate(-97.085 -134.694)" fill="#dda800"/>
        <path id="Path_65" data-name="Path 65" d="M142.543,185.671l7.492,6.774-6.594,7.561-7.752-7.286Z" transform="translate(-88.27 -125.67)" fill="#dda800"/>
        <path id="Path_66" data-name="Path 66" d="M148.052,190.7l8.2,5.68-5.683,8.751-8.736-6.3Z" transform="translate(-78.451 -117.636)" fill="#dda800"/>
        <path id="Path_67" data-name="Path 67" d="M153.715,194.776l8.921,3.942-3.883,10.115-9.967-4.634Z" transform="translate(-67.342 -111.121)" fill="#dda800"/>
        <path id="Path_68" data-name="Path 68" d="M159.179,197.344a57.2,57.2,0,0,0,9.358,1.27l-.681,11.216a68.284,68.284,0,0,1-11.151-1.733Z" transform="translate(-54.686 -107.017)" fill="#dda800"/>
        <path id="Path_69" data-name="Path 69" d="M165.078,198.217l9.965-.612,1,11.595-10.747.452Z" transform="translate(-41.307 -106.601)" fill="#dda800"/>
        <path id="Path_70" data-name="Path 70" d="M172.692,198.412l9.579-2.142,3.065,11.642-10.7,2.178Z" transform="translate(-29.14 -108.734)" fill="#dda800"/>
        <path id="Path_71" data-name="Path 71" d="M179.928,197.589a78.156,78.156,0,0,0,8.711-4.058l5.835,10.987a90.485,90.485,0,0,1-10.174,4.5Z" transform="translate(-17.577 -113.11)" fill="#dda800"/>
        <path id="Path_72" data-name="Path 72" d="M186.376,195.335a67.175,67.175,0,0,0,7.222-6.123l8.877,9.28a80.241,80.241,0,0,1-8.729,7.113Z" transform="translate(-7.273 -120.012)" fill="#dda800"/>
        <path id="Path_73" data-name="Path 73" d="M191.426,191.259a32.888,32.888,0,0,0,3.97-7.654l12.455,4.5a45.98,45.98,0,0,1-5.749,10.644Z" transform="translate(0.797 -128.972)" fill="#dda800"/>
        <path id="Path_74" data-name="Path 74" d="M194.889,189.733a9.565,9.565,0,0,0-2.5-5.5l10.239-9.015a23.209,23.209,0,0,1,5.638,13.2Z" transform="translate(2.337 -142.37)" fill="#dda800"/>
        <path id="Path_75" data-name="Path 75" d="M195.548,186.262a12.313,12.313,0,0,0-6.563-.574l-2.239-13.863a26.35,26.35,0,0,1,13.829,1.538Z" transform="translate(-6.682 -148.311)" fill="#dda800"/>
        <path id="Path_76" data-name="Path 76" d="M195.429,185.477a30.931,30.931,0,0,0-6.292,5.531l-10.74-9.659a45.2,45.2,0,0,1,9.423-7.916Z" transform="translate(-20.023 -145.227)" fill="#dda800"/>
        <path id="Path_77" data-name="Path 77" d="M191.345,187.257a31.013,31.013,0,0,0-2.941,7.8l-14.468-3.336a45.747,45.747,0,0,1,4.549-11.481Z" transform="translate(-27.152 -134.341)" fill="#dda800"/>
        <path id="Path_78" data-name="Path 78" d="M188.615,189.116a72.409,72.409,0,0,0,1.25,9.3l-14.988,2.808a87.871,87.871,0,0,1-1.286-11.273Z" transform="translate(-27.703 -120.166)" fill="#dda800"/>
        <path id="Path_79" data-name="Path 79" d="M189.861,196.246l3.341,8.986-14.441,6.03-3.682-10.526Z" transform="translate(-25.326 -108.772)" fill="#dda800"/>
        <path id="Path_80" data-name="Path 80" d="M192.25,203.014l5.051,8.038-13.182,9.157-5.8-9.644Z" transform="translate(-20.156 -97.956)" fill="#dda800"/>
        <path id="Path_81" data-name="Path 81" d="M195.26,208.888a39.219,39.219,0,0,0,3.312,3.175l3.476,3.076-10.5,12.66-4.219-3.866a52.577,52.577,0,0,1-4.071-4.089Z" transform="translate(-12.257 -88.57)" fill="#dda800"/>
        <path id="Path_82" data-name="Path 82" d="M199.633,213.6l8.4,6.046L198.02,233.2l-8.305-6.225Z" transform="translate(-1.938 -81.035)" fill="#dda800"/>
        <path id="Path_83" data-name="Path 83" d="M206.623,218.4l8.461,7.2-11.9,12.491-7.225-6.39Z" transform="translate(8.038 -73.367)" fill="#dda800"/>
        <path id="Path_84" data-name="Path 84" d="M214.863,224.465a51.763,51.763,0,0,1,6.552,10.589l-16.131,7.176a34.211,34.211,0,0,0-4.216-7.069Z" transform="translate(16.204 -63.678)" fill="#dda800"/>
        <path id="Path_85" data-name="Path 85" d="M221.583,233.452a41.43,41.43,0,0,1-.86,13.156l-17.586-4.087a23.551,23.551,0,0,0,.665-7.441Z" transform="translate(19.511 -49.317)" fill="#dda800"/>
        <path id="Path_86" data-name="Path 86" d="M220.679,249.205a45.24,45.24,0,0,1-8.36,9.922l-12.252-13.808a26.817,26.817,0,0,0,5.115-5.768Z" transform="translate(14.605 -39.571)" fill="#dda800"/>
        <path id="Path_87" data-name="Path 87" d="M212.247,259.628l-9.774,5.442-8.392-16.889,8.436-4.474Z" transform="translate(5.039 -32.929)" fill="#dda800"/>
        <path id="Path_88" data-name="Path 88" d="M204.609,264.327,195.65,268.8,186.8,251.694l9.695-4.614Z" transform="translate(-6.593 -27.539)" fill="#dda800"/>
        <path id="Path_89" data-name="Path 89" d="M199.679,267.249a40.991,40.991,0,0,0-6.459,5.31L179.256,258.72a60.423,60.423,0,0,1,9.67-7.693Z" transform="translate(-18.651 -21.232)" fill="#dda800"/>
        <path id="Path_90" data-name="Path 90" d="M196.492,268.511a53.521,53.521,0,0,0-4.05,7.745l-18.383-8.036a73.822,73.822,0,0,1,5.765-10.509Z" transform="translate(-26.957 -10.551)" fill="#dda800"/>
        <path id="Path_91" data-name="Path 91" d="M193.5,271.2a60.783,60.783,0,0,0-1.5,8.745l-20.342-2.227a81.44,81.44,0,0,1,2.237-11.636Z" transform="translate(-30.792 2.832)" fill="#dda800"/>
        <path id="Path_92" data-name="Path 92" d="M192.092,274.878a73.848,73.848,0,0,0,.9,9.038l-20.633,3.1a93.976,93.976,0,0,1-.925-11.616Z" transform="translate(-31.149 16.881)" fill="#dda800"/>
        <path id="Path_93" data-name="Path 93" d="M193.041,281.843l2.863,9.016-20.053,7.079-3.2-10.811Z" transform="translate(-29.208 28.012)" fill="#dda800"/>
        <path id="Path_94" data-name="Path 94" d="M195.049,288.7l4.318,8.526-19.062,10.3-4.855-10.069Z" transform="translate(-24.733 38.962)" fill="#dda800"/>
        <path id="Path_95" data-name="Path 95" d="M197.923,295.15l5.52,7.94-17.851,12.975-6.14-9.21Z" transform="translate(-18.337 49.275)" fill="#dda800"/>
        <path id="Path_96" data-name="Path 96" d="M201.6,301.143l6.475,7.319-16.587,15.157-7.106-8.354Z" transform="translate(-10.465 58.852)" fill="#dda800"/>
        <path id="Path_97" data-name="Path 97" d="M205.962,306.657l7.222,6.7-15.352,16.952L190,322.753Z" transform="translate(-1.484 67.664)" fill="#dda800"/>
        <path id="Path_98" data-name="Path 98" d="M210.9,311.7l7.809,6.108L204.54,336.273l-8.4-6.834Z" transform="translate(8.336 75.725)" fill="#dda800"/>
        <path id="Path_99" data-name="Path 99" d="M216.288,316.293l8.275,5.536L211.545,341.6l-8.847-6.17Z" transform="translate(18.81 83.062)" fill="#dda800"/>
        <path id="Path_100" data-name="Path 100" d="M222.03,320.447l8.649,4.973-11.867,20.946-9.227-5.546Z" transform="translate(29.814 89.699)" fill="#dda800"/>
        <path id="Path_101" data-name="Path 101" d="M228.029,324.166c2.977,1.481,5.944,2.982,8.945,4.393L226.33,350.6c-3.227-1.593-6.4-3.271-9.574-4.936Z" transform="translate(41.274 95.643)" fill="#dda800"/>
        <path id="Path_102" data-name="Path 102" d="M234.167,327.43l9.209,3.776-9.282,23.08-9.9-4.285Z" transform="translate(53.159 100.858)" fill="#dda800"/>
        <path id="Path_103" data-name="Path 103" d="M240.441,330.216l9.44,3.15-7.844,24.03-10.169-3.614Z" transform="translate(65.423 105.311)" fill="#dda800"/>
        <path id="Path_104" data-name="Path 104" d="M246.836,332.519l9.623,2.514-6.327,24.887-10.391-2.93Z" transform="translate(78.003 108.991)" fill="#dda800"/>
        <path id="Path_105" data-name="Path 105" d="M253.339,334.336l4.884.975-5.132,25.468-5.286-1.162Z" transform="translate(90.889 111.895)" fill="#dda800"/>
      </g>
    </g>
    <g id="Group_2" data-name="Group 2" transform="translate(305.58 148.728)">
      <path id="Path_106" data-name="Path 106" d="M99.629,157.3l11.244,11.244,11.244,11.247s-1.92,22.654-14.206,34.94L86.3,193.119,64.686,171.506C76.972,159.22,99.629,157.3,99.629,157.3Z" transform="translate(4.673 93.452)" fill="#97ccef"/>
      <path id="Path_107" data-name="Path 107" d="M190.059,122.273l-48.985,68.488c-27.045-14.372-61.391-6.074-83.692,2.369-6.233,2.359-11.623-5.071-7.358-10.192C118.986,100.2,190.059,122.273,190.059,122.273Z" transform="translate(-21.195 33.21)" fill="#e54e2c"/>
      <path id="Path_108" data-name="Path 108" d="M187.873,161.657l-68.486,48.985c14.37,27.048,6.072,61.393-2.369,83.692-2.359,6.233,5.069,11.623,10.189,7.357C209.946,232.733,187.873,161.657,187.873,161.657Z" transform="translate(87.579 100.414)" fill="#e54e2c"/>
      <path id="Path_109" data-name="Path 109" d="M140.7,237.89a25.78,25.78,0,0,1,11.488-24.26L190.474,188.2c.551-16.37-2.6-26.546-2.6-26.546l-68.486,48.985c14.369,27.048,6.072,61.393-2.369,83.692a6.534,6.534,0,0,0,7.721,8.644C133.916,285.649,143.349,261.342,140.7,237.89Z" transform="translate(87.578 100.414)" fill="#e54e2c" opacity="0.5" style="mix-blend-mode: multiply;isolation: isolate"/>
      <path id="Path_110" data-name="Path 110" d="M113.812,169.441a25.777,25.777,0,0,0,24.26-11.486L163.5,119.669c16.37-.551,26.546,2.6,26.546,2.6L141.06,190.758c-27.045-14.372-61.391-6.074-83.692,2.369a6.536,6.536,0,0,1-8.644-7.724C66.053,176.227,90.36,166.8,113.812,169.441Z" transform="translate(-21.181 33.214)" fill="#e54e2c" opacity="0.5" style="mix-blend-mode: multiply;isolation: isolate"/>
      <path id="Path_111" data-name="Path 111" d="M358.779,233.387c72.8-82.642,42.306-166.266,42.306-166.266s-83.624-30.5-166.266,42.306-158.342,197.8-158.342,197.8l42.254,42.251,42.251,42.254S285.978,316.026,358.779,233.387Z" transform="translate(23.513 -60.782)" fill="#fff"/>
      <path id="Path_112" data-name="Path 112" d="M358.779,206.375c42.42-48.154,49.751-96.606,48.5-128.689-3.071,29.921-14.855,67.4-47.717,104.7-42.76,48.538-103.527,94.684-146.4,124.5a73.288,73.288,0,0,1-93.655-8.415l-33.46-33.46c-6.155,9.555-9.571,15.193-9.571,15.193l42.254,42.251,42.251,42.254S285.978,289.014,358.779,206.375Z" transform="translate(23.513 -33.771)" fill="#e5e6e7" style="mix-blend-mode: multiply;isolation: isolate"/>
      <path id="Path_113" data-name="Path 113" d="M142.669,200.343,131.425,189.1l-11.247-11.244s-22.654,1.92-34.94,14.206l21.613,21.613,21.613,21.613C140.749,223,142.669,200.343,142.669,200.343Z" transform="translate(37.514 126.294)" fill="#97ccef"/>
      <path id="Path_114" data-name="Path 114" d="M104.5,189.956a26.238,26.238,0,0,1,26.954,6.409l1.117,1.115,9.145,9.148c.727-3.772.951-6.285.951-6.285L131.425,189.1l-11.247-11.244s-22.654,1.92-34.94,14.206l5.053,5.053A52.833,52.833,0,0,1,104.5,189.956Z" transform="translate(37.514 126.294)" fill="#97ccef" opacity="0.5" style="mix-blend-mode: multiply;isolation: isolate"/>
      <path id="Path_115" data-name="Path 115" d="M92.386,195.467a26.238,26.238,0,0,0-6.407-26.954L84.862,167.4l-9.145-9.145c3.77-.727,6.285-.951,6.285-.951l11.244,11.244,11.244,11.247s-1.92,22.654-14.206,34.94l-5.053-5.05A52.848,52.848,0,0,0,92.386,195.467Z" transform="translate(22.3 93.452)" fill="#97ccef" opacity="0.5" style="mix-blend-mode: multiply;isolation: isolate"/>
      <path id="Path_116" data-name="Path 116" d="M190.605,151.518a7.435,7.435,0,0,0-10.184-10.184A230.372,230.372,0,0,0,128.534,180.2c-34.849,34.849-53.742,56.589-43.563,66.768s31.919-8.711,66.768-43.561A230.375,230.375,0,0,0,190.605,151.518Z" transform="translate(32.697 66.299)" fill="#e54e2c"/>
      <path id="Path_117" data-name="Path 117" d="M186.212,155.841A300.488,300.488,0,0,1,158.874,187.3c-34.849,34.849-56.244,54.088-63.947,46.385s11.533-29.1,46.382-63.95a300.489,300.489,0,0,1,31.456-27.339,230.475,230.475,0,0,0-44.231,34.473c-34.849,34.849-53.742,56.589-43.563,66.768s31.919-8.711,66.768-43.561A230.377,230.377,0,0,0,186.212,155.841Z" transform="translate(32.697 69.632)" fill="#e54e2c" opacity="0.5" style="mix-blend-mode: multiply;isolation: isolate"/>
      <ellipse id="Ellipse_33" data-name="Ellipse 33" cx="61.569" cy="61.569" rx="61.569" ry="61.569" transform="translate(247.821 59.977)" fill="#053849"/>
      <ellipse id="Ellipse_34" data-name="Ellipse 34" cx="41.162" cy="41.162" rx="41.162" ry="41.162" transform="translate(268.228 80.384)" fill="#97ccef"/>
      <circle id="Ellipse_35" data-name="Ellipse 35" cx="4.667" cy="4.667" r="4.667" transform="translate(341.335 153.492)" fill="#8caedc"/>
      <path id="Path_118" data-name="Path 118" d="M159.947,125.7a4.666,4.666,0,1,1-4.666,4.666A4.666,4.666,0,0,1,159.947,125.7Z" transform="translate(149.442 42.957)" fill="#8caedc"/>
      <circle id="Ellipse_36" data-name="Ellipse 36" cx="4.667" cy="4.667" r="4.667" transform="translate(268.111 153.492)" fill="#8caedc"/>
      <path id="Path_119" data-name="Path 119" d="M144.686,110.437a4.667,4.667,0,1,1-4.669-4.666A4.668,4.668,0,0,1,144.686,110.437Z" transform="translate(117.595 11.109)" fill="#8caedc"/>
      <ellipse id="Ellipse_37" data-name="Ellipse 37" cx="4.667" cy="4.667" rx="4.667" ry="4.667" transform="translate(268.111 80.267)" fill="#8caedc"/>
      <path id="Path_120" data-name="Path 120" d="M159.947,95.176a4.667,4.667,0,1,1,4.666-4.669A4.668,4.668,0,0,1,159.947,95.176Z" transform="translate(149.442 -20.739)" fill="#8caedc"/>
      <ellipse id="Ellipse_38" data-name="Ellipse 38" cx="4.667" cy="4.667" rx="4.667" ry="4.667" transform="translate(341.335 80.267)" fill="#8caedc"/>
      <path id="Path_121" data-name="Path 121" d="M175.211,110.437a4.666,4.666,0,1,1,4.666,4.666A4.666,4.666,0,0,1,175.211,110.437Z" transform="translate(181.29 11.109)" fill="#8caedc"/>
      <path id="Path_122" data-name="Path 122" d="M243.674,67.1s-28.526-10.363-68.693-4.528c2.868,11.312,9.919,31.927,25.606,47.616h0c15.689,15.687,36.3,22.738,47.619,25.608C254.038,95.629,243.674,67.1,243.674,67.1Z" transform="translate(180.923 -60.765)" fill="#e54e2c"/>
      <g id="Group_31" data-name="Group 31" transform="translate(53.394 333.965)">
        <path id="Path_123" data-name="Path 123" d="M58.541,286.3s55.129-2.372,82.969-30.212c15.655-15.656,15.463-32.148,12.3-43.584a30.858,30.858,0,0,0-21.47-21.47c-11.436-3.167-27.928-3.359-43.584,12.3C60.913,231.171,58.541,286.3,58.541,286.3Z" transform="translate(-58.541 -189.33)" fill="#f47a27"/>
        <path id="Path_124" data-name="Path 124" d="M68.23,259.423s39.245-1.689,59.06-21.506c11.143-11.143,11.008-22.883,8.753-31.025a21.96,21.96,0,0,0-15.281-15.281c-8.142-2.255-19.882-2.39-31.025,8.753C69.919,220.178,68.23,259.423,68.23,259.423Z" transform="translate(-43.058 -187.625)" fill="#f7c500"/>
        <path id="Path_125" data-name="Path 125" d="M77.465,233.807s24.1-1.037,36.273-13.208c6.843-6.843,6.76-14.053,5.375-19.054a13.491,13.491,0,0,0-9.387-9.387c-5-1.385-12.211-1.468-19.054,5.375C78.5,209.705,77.465,233.807,77.465,233.807Z" transform="translate(-28.301 -186.001)" fill="#feffff"/>
      </g>
      <g id="Group_32" data-name="Group 32" transform="translate(0 280.573)">
        <path id="Path_126" data-name="Path 126" d="M37.989,265.747s55.132-2.372,82.969-30.212c15.655-15.653,15.463-32.148,12.3-43.584a30.867,30.867,0,0,0-21.47-21.47c-11.436-3.164-27.928-3.357-43.584,12.3C40.364,210.618,37.989,265.747,37.989,265.747Z" transform="translate(-37.989 -168.778)" fill="#f47a27"/>
        <path id="Path_127" data-name="Path 127" d="M47.678,238.871s39.245-1.689,59.06-21.506c11.145-11.143,11.008-22.883,8.753-31.025a21.96,21.96,0,0,0-15.281-15.281c-8.142-2.255-19.882-2.39-31.025,8.753C49.367,199.629,47.678,238.871,47.678,238.871Z" transform="translate(-22.506 -167.074)" fill="#f7c500"/>
        <path id="Path_128" data-name="Path 128" d="M56.913,213.255s24.1-1.037,36.273-13.208c6.843-6.843,6.76-14.053,5.375-19.054a13.5,13.5,0,0,0-9.387-9.387c-5-1.385-12.211-1.468-19.054,5.378C57.952,189.153,56.913,213.255,56.913,213.255Z" transform="translate(-7.749 -165.45)" fill="#feffff"/>
      </g>
      <path id="Path_129" data-name="Path 129" d="M141.289,121.855l81.125-6.087A40.918,40.918,0,0,0,212.295,96.74l-63.864,4.791A40.959,40.959,0,0,0,141.289,121.855Z" transform="translate(127.083 -3.322)" fill="#fff" opacity="0.5" style="mix-blend-mode: soft-light;isolation: isolate"/>
      <path id="Path_130" data-name="Path 130" d="M146.835,126.6l72.042-5.4a41.092,41.092,0,0,0,3.289-11.556l-80.309,6.027A40.838,40.838,0,0,0,146.835,126.6Z" transform="translate(127.991 17.288)" fill="#fff" opacity="0.5" style="mix-blend-mode: soft-light;isolation: isolate"/>
    </g>
    <g id="Group_3" data-name="Group 3" transform="translate(616.152 545.267)">
      <g id="Group_34" data-name="Group 34" transform="translate(0 180.849)">
        <path id="Path_131" data-name="Path 131" d="M234.573,311.889s-9.366-18.539-16.936-26.518-15.118,6.391-11.574,13.437c0,0-10.241-9.9-18.178-12.179-28.2-8.119-45.808,34.943-11.28,51.126,26.57,11.5,38.253,15.593,38.253,15.593Z" transform="translate(-157.532 -283.026)" fill="#97ccef"/>
      </g>
      <path id="Path_132" data-name="Path 132" d="M228.989,306.994c-1.117-7.581-2.016-13.574-2.016-13.574s-19.919,27.57-24.483,26.518c-22.514-3.481-39.9-20.638-44.945-26.1-.208,10.075,5.245,20.839,19.048,27.308,26.57,11.5,38.253,15.593,38.253,15.593Z" transform="translate(-157.521 -85.569)" fill="#97ccef" opacity="0.5" style="mix-blend-mode: multiply;isolation: isolate"/>
      <g id="Group_35" data-name="Group 35" transform="translate(346.785 245.668)">
        <path id="Path_133" data-name="Path 133" d="M291.014,341.155s4.188,21.483,8.812,31.462,16.367-1.224,15.261-9.033c0,0,5.09,11.634,11.878,16.334,24.125,16.7,54.573-18.474,27.027-44.841-21.5-19.384-31.246-27.1-31.246-27.1Z" transform="translate(-291.014 -307.976)" fill="#97ccef"/>
      </g>
      <path id="Path_134" data-name="Path 134" d="M299.826,354.527c4.061,8.766,13.608,1.19,15.123-6.077-1.689,2.442-5.383,2.884-8.542-.327s-3.3-28.25-3.3-28.25c-.709-1.406-5.832-.005-10.649,1.689l-1.439,1.5S295.2,344.548,299.826,354.527Z" transform="translate(55.771 -44.219)" fill="#97ccef" opacity="0.5" style="mix-blend-mode: multiply;isolation: isolate"/>
      <g id="Group_36" data-name="Group 36" transform="translate(43.176 107.001)">
        <path id="Path_135" data-name="Path 135" d="M201.635,254.746s-20.958-2.273-26.435,11.249,11.545,75.072,26.164,76.181c9.865.234,21.849-5.773,21.849-5.773Z" transform="translate(-174.151 -254.602)" fill="#97ccef"/>
      </g>
      <g id="Group_37" data-name="Group 37" transform="translate(283.511 44.301)">
        <path id="Path_136" data-name="Path 136" d="M266.659,237.065s17.1-12.33,28.539-3.279,27.05,70.975,14.889,79.161c-8.462,5.077-21.849,5.775-21.849,5.775Z" transform="translate(-266.659 -230.467)" fill="#97ccef"/>
      </g>
      <path id="Path_137" data-name="Path 137" d="M300.277,296.47c-.483-25.562-16.806-54.55-23.514-65.415a42.592,42.592,0,0,0-10.1,5.071l21.579,81.655s13.387-.7,21.849-5.773c2.91-1.959,4.217-7.009,4.383-13.66C307.668,300.281,300.565,300.936,300.277,296.47Z" transform="translate(16.852 -185.227)" fill="#97ccef" opacity="0.5" style="mix-blend-mode: multiply;isolation: isolate"/>
      <path id="Path_138" data-name="Path 138" d="M192.336,323.817c-12.208-22.462-12.335-55.732-11.87-68.491a42.609,42.609,0,0,1,11.291-.582L213.333,336.4s-11.984,6.009-21.849,5.775c-3.5-.265-7.129-4.014-10.561-9.711C187.792,330.782,194.295,327.844,192.336,323.817Z" transform="translate(-121.094 -147.599)" fill="#97ccef" opacity="0.5" style="mix-blend-mode: multiply;isolation: isolate"/>
      <g id="Group_39" data-name="Group 39" transform="translate(96.385 107.917)">
        <path id="Path_139" data-name="Path 139" d="M280.051,258.789h0a114.694,114.694,0,0,0-81.585,140.19l26.507,100.308a46.073,46.073,0,0,0,56.319,32.776L413.972,497a46.078,46.078,0,0,0,32.776-56.322L420.241,340.373A114.7,114.7,0,0,0,280.051,258.789Z" transform="translate(-194.632 -254.954)" fill="#e5e6e7"/>
        <g id="Group_38" data-name="Group 38" transform="translate(4.492 87.911)">
          <path id="Path_140" data-name="Path 140" d="M308.005,288.792a118.759,118.759,0,0,0-38.78,121.565l10.127,38.315,21.727-5.742a46.078,46.078,0,0,0,32.776-56.322l-25.847-97.817Z" transform="translate(-86.23 -288.792)" fill="#e24530"/>
          <path id="Path_141" data-name="Path 141" d="M196.361,311.35h0l25.85,97.817a46.073,46.073,0,0,0,56.319,32.776l21.73-5.742-10.124-38.315A118.761,118.761,0,0,0,196.361,311.35Z" transform="translate(-196.361 -252.745)" fill="#e24530"/>
        </g>
        <path id="Path_142" data-name="Path 142" d="M343.337,260.712a114.1,114.1,0,0,1,30.337,52.339l26.507,100.308A46.075,46.075,0,0,1,367.4,469.679L234.725,504.741a45.814,45.814,0,0,1-25.977-.748,46.056,46.056,0,0,0,49.988,18.869L391.415,487.8a46.078,46.078,0,0,0,32.776-56.322L397.684,331.172A114.324,114.324,0,0,0,343.337,260.712Z" transform="translate(-172.075 -245.753)" fill="#e5e6e7" opacity="0.5" style="mix-blend-mode: multiply;isolation: isolate"/>
      </g>
      <g id="Group_40" data-name="Group 40" transform="translate(57.324 186.005)">
        <path id="Path_143" data-name="Path 143" d="M469.057,377.853l31.732-33.179c-40.207-38.45-75.906-47.122-100.89-46.608-.611-1.806-.956-2.811-.956-2.811s-17.895-19.007-69.992-5.24c-49.481,13.076-57.525,36.6-58.208,38.928-18.261-1.515-42.8-6.609-71.429-20.225L179.6,350.176c40.695,19.355,75.757,24.564,100.316,25.042,3.707,17.664,7.989,36.985,11.769,51.292,3.39,12.834,8.979,23.927,17.31,32.08-5.362,20.259-12.133,52.22-12.024,83.393l51.562-.205c.016-23.434,5.843-50.635,10.987-69.307a124.647,124.647,0,0,0,16.786-3.263,122.331,122.331,0,0,0,17.929-6.181c13.717,13.689,32.353,34.571,44,55.046l44.94-25.3c-15.832-28.092-38.469-53.264-53.134-68.062,2.606-10.675,1.938-22.353-1.255-34.434-3.372-12.759-8.368-29.183-13.312-44.782C429.43,348.727,447.681,357.412,469.057,377.853Z" transform="translate(-179.597 -285.011)" fill="#fff"/>
      </g>
      <g id="Group_41" data-name="Group 41" transform="translate(64.154)">
        <path id="Path_144" data-name="Path 144" d="M418.649,283.243c-40.586-96.52-143.061-64.859-143.061-64.859s-104.735,23.1-92.343,127.065,107.346,98.053,148.93,87.064S459.235,379.761,418.649,283.243Z" transform="translate(-182.226 -213.415)" fill="#fff"/>
      </g>
      <path id="Path_145" data-name="Path 145" d="M398.7,271.674c-10.2-24.265-24.32-40.417-39.734-51.019,11.883,10.35,22.616,24.541,30.807,44.02C430.361,361.2,344.882,402.959,303.3,413.948c-26.312,6.952-73.98,11.836-108.591-11.834,34.86,31.555,88.862,26.4,117.52,18.83C353.809,409.955,439.288,368.192,398.7,271.674Z" transform="translate(-98.125 -201.847)" fill="#e5e6e7" style="mix-blend-mode: multiply;isolation: isolate"/>
      <g id="Group_43" data-name="Group 43" transform="translate(161.394 288.067)">
        <g id="Group_42" data-name="Group 42">
          <path id="Path_146" data-name="Path 146" d="M304.15,375.838c-44.711,11.816-73.923,6.534-75.144,6.3a11.477,11.477,0,0,1,4.219-22.564c.538.1,26.008,4.385,65.061-5.934,39.11-10.335,58.021-26.39,58.211-26.551a11.478,11.478,0,0,1,15.131,17.264C370.721,345.15,348.973,363.993,304.15,375.838Z" transform="translate(-219.655 -324.296)" fill="#97ccef"/>
        </g>
      </g>
      <path id="Path_147" data-name="Path 147" d="M369.98,334.782c-.9.795-22.654,19.638-67.478,31.482-44.711,11.816-73.923,6.534-75.144,6.305a11.4,11.4,0,0,1-7.685-5.417,11.449,11.449,0,0,0,9.309,11.558c1.221.231,30.433,5.51,75.144-6.3,44.823-11.844,66.571-30.688,67.478-31.482a11.431,11.431,0,0,0,2.214-14.484A11.356,11.356,0,0,1,369.98,334.782Z" transform="translate(-58.237 -32.8)" fill="#97ccef" opacity="0.5" style="mix-blend-mode: multiply;isolation: isolate"/>
      <g id="Group_45" data-name="Group 45" transform="translate(140.759 188.599)">
        <g id="Group_44" data-name="Group 44">
          <path id="Path_148" data-name="Path 148" d="M289.013,331.832c-38.822,10.257-69.437,3.616-71.346,3.183a7.651,7.651,0,0,1,3.388-14.923C222,320.3,285.62,333.7,342.83,287.7a7.651,7.651,0,1,1,9.589,11.925A169.834,169.834,0,0,1,289.013,331.832Z" transform="translate(-211.712 -286.01)" fill="#97ccef"/>
        </g>
      </g>
      <path id="Path_149" data-name="Path 149" d="M218.265,328.046c1.008.19,68.852,12.478,130.939-34.816a8.742,8.742,0,0,1,5.742-1.754,7.639,7.639,0,0,0-12.122-3.78c-57.21,46.005-120.833,32.6-121.776,32.394a7.655,7.655,0,0,0-9.15,5.765,7.557,7.557,0,0,0,.029,3.4A8.739,8.739,0,0,1,218.265,328.046Z" transform="translate(-70.946 -97.411)" fill="#97ccef" opacity="0.5" style="mix-blend-mode: multiply;isolation: isolate"/>
      <g id="Group_53" data-name="Group 53" transform="translate(188.414 232.024)">
        <g id="Group_46" data-name="Group 46">
          <path id="Path_150" data-name="Path 150" d="M284.5,303.191l-14.7,5.583a85.715,85.715,0,0,1-17.04,4.536l-16.7,2.65a7.116,7.116,0,0,0-5.765,8.849l6.435,24.359a7.119,7.119,0,0,0,7.984,5.214l17.573-2.754a85.867,85.867,0,0,0,17.045-4.5l16.64-6.287a7.117,7.117,0,0,0,4.365-8.477l-6.43-24.333A7.117,7.117,0,0,0,284.5,303.191Z" transform="translate(-230.055 -302.725)" fill="#d7ecf9"/>
        </g>
        <g id="Group_47" data-name="Group 47" transform="translate(7.098 19.273)">
          <path id="Path_151" data-name="Path 151" d="M243.935,314.362a5.667,5.667,0,1,1-6.926-4.029A5.668,5.668,0,0,1,243.935,314.362Z" transform="translate(-232.787 -310.143)" fill="#f05238"/>
        </g>
        <g id="Group_48" data-name="Group 48" transform="translate(11.062 34.27)">
          <path id="Path_152" data-name="Path 152" d="M245.458,320.136a5.666,5.666,0,1,1-6.926-4.032A5.667,5.667,0,0,1,245.458,320.136Z" transform="translate(-234.313 -315.915)" fill="#f05238"/>
        </g>
        <g id="Group_50" data-name="Group 50" transform="translate(22.578 9.893)">
          <g id="Group_49" data-name="Group 49">
            <path id="Path_153" data-name="Path 153" d="M256.244,319.9a94.73,94.73,0,0,1-13.775,2.645,3.4,3.4,0,0,1-.662-6.76c.158-.013,15.8-1.626,29.651-8.864a3.394,3.394,0,1,1,3.144,6.017A89.254,89.254,0,0,1,256.244,319.9Z" transform="translate(-238.746 -306.533)" fill="#97ccef"/>
          </g>
        </g>
        <g id="Group_52" data-name="Group 52" transform="translate(26.293 23.946)">
          <g id="Group_51" data-name="Group 51">
            <path id="Path_154" data-name="Path 154" d="M257.674,325.309a94.711,94.711,0,0,1-13.775,2.645,3.395,3.395,0,0,1-.66-6.757c.156-.016,15.8-1.626,29.646-8.867a3.4,3.4,0,0,1,3.149,6.02A89.4,89.4,0,0,1,257.674,325.309Z" transform="translate(-240.176 -311.942)" fill="#97ccef"/>
          </g>
        </g>
      </g>
      <path id="Path_155" data-name="Path 155" d="M277.211,325.729l-6.664-5.261a4.56,4.56,0,0,0-4.51-.657l-7.888,3.144a4.554,4.554,0,0,0-2.824,3.577l-1.224,8.4a4.562,4.562,0,0,0,1.686,4.235l6.664,5.258a4.557,4.557,0,0,0,4.513.657l7.885-3.141a4.554,4.554,0,0,0,2.824-3.578l1.224-8.4A4.557,4.557,0,0,0,277.211,325.729Z" transform="translate(-3.29 -43.913)" fill="#97ccef"/>
      <path id="Path_156" data-name="Path 156" d="M232.055,337.415l3.2-7.864a4.559,4.559,0,0,1,3.6-2.8l8.41-1.164a4.56,4.56,0,0,1,4.222,1.715l5.214,6.7a4.559,4.559,0,0,1,.626,4.515l-3.2,7.867a4.556,4.556,0,0,1-3.6,2.8l-8.41,1.167a4.56,4.56,0,0,1-4.224-1.717l-5.212-6.7A4.558,4.558,0,0,1,232.055,337.415Z" transform="translate(-38.981 -34.236)" fill="#97ccef"/>
      <g id="Group_56" data-name="Group 56" transform="translate(87.876 40.778)">
        <g id="Group_54" data-name="Group 54">
          <path id="Path_157" data-name="Path 157" d="M388.5,277.659c-31.046-69.8-116.79-43.813-116.79-43.813s-87.389,19.763-79.9,95.788S278.125,398.78,312.871,389.6,419.547,347.462,388.5,277.659Z" transform="translate(-191.357 -229.111)" fill="#053849"/>
        </g>
        <path id="Path_158" data-name="Path 158" d="M376.566,270.884c-8.228-18.5-20.308-30.222-33.6-37.533a81.7,81.7,0,0,1,18,26.149c31.046,69.8-40.887,102.758-75.63,111.94-21.179,5.6-58.715,10.3-86.508-4.066,27.352,27.65,76.6,22.192,102.111,15.45C335.679,373.643,407.613,340.687,376.566,270.884Z" transform="translate(-179.423 -222.337)" fill="#053849" opacity="0.5" style="mix-blend-mode: multiply;isolation: isolate"/>
        <g id="Group_55" data-name="Group 55" transform="translate(20.87 0.274)">
          <path id="Path_159" data-name="Path 159" d="M258.874,233.678a110.989,110.989,0,0,0-11.436,3.51c-2.749,29.776-12.689,85.515-48.047,138.278,9.667,9.1,21.821,14.362,34.621,17.058,42.527-65.612,50.9-133.682,52.42-163.307A134.179,134.179,0,0,0,258.874,233.678Z" transform="translate(-199.39 -229.217)" fill="#fff" opacity="0.5" style="mix-blend-mode: soft-light;isolation: isolate"/>
          <path id="Path_160" data-name="Path 160" d="M280.868,229.838c-1.928,29.931-11.7,100.857-59.5,164.042a159.832,159.832,0,0,0,24.852-1.673c41.152-60.848,51.206-124.7,53.563-156.76A90.541,90.541,0,0,0,280.868,229.838Z" transform="translate(-164.268 -228.225)" fill="#fff" opacity="0.5" style="mix-blend-mode: soft-light;isolation: isolate"/>
        </g>
      </g>
      <g id="Group_57" data-name="Group 57" transform="translate(257.024 270.115)">
        <path id="Path_161" data-name="Path 161" d="M301.041,385.565c-9.626,2.543-20.9-1.211-28.432-7.282-11.875-9.587-18.015-26.575-15.64-43.285a5.739,5.739,0,1,1,11.364,1.616c-1.816,12.787,2.692,25.64,11.486,32.737,5.812,4.689,15.567,7.5,21.166,3.861a8.091,8.091,0,0,0,3.557-5.583,11.892,11.892,0,0,0-2.307-8.981,29.564,29.564,0,0,0-5.755-4.954c-4.487-3.286-10.07-7.376-11.6-14.689a17.322,17.322,0,0,1,2.863-13.676,19.208,19.208,0,0,1,13.13-7.89,5.738,5.738,0,1,1,1.53,11.374,7.894,7.894,0,0,0-5.287,3.138,5.9,5.9,0,0,0-1,4.7c.587,2.806,3.092,4.814,7.147,7.786a38.107,38.107,0,0,1,8.043,7.178,23.383,23.383,0,0,1,4.552,17.934,19.5,19.5,0,0,1-8.625,13.294A21.44,21.44,0,0,1,301.041,385.565Z" transform="translate(-256.464 -317.386)" fill="#053849"/>
      </g>
      <g id="Group_58" data-name="Group 58" transform="translate(159.806 297.991)">
        <path id="Path_162" data-name="Path 162" d="M256.15,396.082a21.253,21.253,0,0,1-6.729.691,19.5,19.5,0,0,1-14.071-7.3,23.391,23.391,0,0,1-4.9-17.84,38.136,38.136,0,0,1,3.445-10.218c2.06-4.585,3.245-7.568,2.369-10.3a5.893,5.893,0,0,0-3.19-3.59,7.878,7.878,0,0,0-6.147-.117,5.738,5.738,0,1,1-4.289-10.644,19.225,19.225,0,0,1,15.313.371,17.306,17.306,0,0,1,9.244,10.478c2.281,7.116-.551,13.429-2.827,18.5a29.468,29.468,0,0,0-2.556,7.152,11.887,11.887,0,0,0,2.429,8.947,8.084,8.084,0,0,0,5.851,3.1c6.672.387,13.759-6.864,16.495-13.816,4.141-10.514,1.712-23.912-6.183-34.135a5.739,5.739,0,1,1,9.08-7.02c10.319,13.359,13.374,31.163,7.784,45.361C273.725,384.706,265.772,393.539,256.15,396.082Z" transform="translate(-219.043 -328.116)" fill="#053849"/>
      </g>
      <path id="Path_163" data-name="Path 163" d="M334.348,335.244s-32.576-33.114-66.683-34.436l7.077,19.446c13.956,3.229,32.207,11.914,53.584,32.355l5.289-5.531Z" transform="translate(18.459 -73.763)" fill="#e5e6e7" style="mix-blend-mode: multiply;isolation: isolate"/>
      <g id="Group_60" data-name="Group 60" transform="translate(339.133 238.014)">
        <g id="Group_59" data-name="Group 59">
          <path id="Path_164" data-name="Path 164" d="M297.685,353.261a7.654,7.654,0,0,1-7.5-12.686L321.921,307.4a7.652,7.652,0,0,1,11.062,10.576l-31.732,33.179A7.622,7.622,0,0,1,297.685,353.261Z" transform="translate(-288.069 -305.03)" fill="#fc7765"/>
        </g>
      </g>
      <path id="Path_165" data-name="Path 165" d="M349.92,328.373c-24.694,30.5-49.64,2.616-49.64,2.616s5.09,11.634,11.878,16.334C328.606,358.71,347.974,345.98,349.92,328.373Z" transform="translate(70.578 -29.714)" fill="#97ccef" opacity="0.5" style="mix-blend-mode: multiply;isolation: isolate"/>
      <path id="Path_166" data-name="Path 166" d="M320.624,311c-17.269-11.231-33.218-17.261-47.27-20.121.21,6.809,2.164,20.366,13.98,25.658C300.05,322.238,313.684,319.495,320.624,311Z" transform="translate(27.548 -89.623)" fill="#97ccef"/>
      <path id="Path_167" data-name="Path 167" d="M190.8,323.5a242.594,242.594,0,0,0,51.516,11.805c-.779-5-4.43-21.688-18.945-25.18C208.994,306.67,195.36,312.739,190.8,323.5Z" transform="translate(-104.374 -60.423)" fill="#97ccef"/>
      <path id="Path_168" data-name="Path 168" d="M278.154,326.449s-53.864-4.78-86.913-20.677a40.77,40.77,0,0,0-4.191-1.712L179.6,319.738c40.695,19.355,75.757,24.564,100.316,25.042C279.913,344.78,278.227,338.955,278.154,326.449Z" transform="translate(-122.273 -68.568)" fill="#e5e6e7" style="mix-blend-mode: multiply;isolation: isolate"/>
      <g id="Group_62" data-name="Group 62" transform="translate(49.67 202.06)">
        <g id="Group_61" data-name="Group 61">
          <path id="Path_169" data-name="Path 169" d="M186.256,347.7a7.652,7.652,0,0,1-8.862-10.685l19.716-41.456a7.652,7.652,0,1,1,13.821,6.573L191.216,343.59A7.638,7.638,0,0,1,186.256,347.7Z" transform="translate(-176.651 -291.191)" fill="#fc7765"/>
        </g>
      </g>
      <path id="Path_170" data-name="Path 170" d="M332.717,385.978c-3.744-2.073-32.072-32.09-33.621-35.052s-4.193-1.387-8.347,2.206-25.084,11.275-30.887,8.163-6.279-1.094-6.742.049-12.335,51.734-12.335,51.734,4.835-.109,11.951-.275a341.68,341.68,0,0,1,9-43.181,124.637,124.637,0,0,0,16.786-3.263,122.326,122.326,0,0,0,17.929-6.181,337.522,337.522,0,0,1,30.893,35.356C331.361,390.881,334.191,386.794,332.717,385.978Z" transform="translate(-24.495 3.844)" fill="#e5e6e7" style="mix-blend-mode: multiply;isolation: isolate"/>
      <g id="Group_63" data-name="Group 63" transform="translate(105.113 409.596)">
        <path id="Path_171" data-name="Path 171" d="M268.819,371.074c-.327,3.175-1.743,25.72-1.743,25.72s-27.611-15.933-50.572-2.746-18.077,44.795-18.077,44.795l119.43,12.566,3.809-76.859Z" transform="translate(-197.991 -371.074)" fill="#97ccef"/>
      </g>
      <g id="Group_64" data-name="Group 64" transform="translate(299.106 359.532)">
        <path id="Path_172" data-name="Path 172" d="M316.921,357.614c1.852,2.6,14.2,21.519,14.2,21.519s16.165-27.476,42.643-27.328,37.814,30.059,37.814,30.059l-97.708,69.821L272.662,386.7Z" transform="translate(-272.662 -351.804)" fill="#97ccef"/>
      </g>
      <g id="Group_65" data-name="Group 65" transform="translate(332.919 377.121)">
        <path id="Path_173" data-name="Path 173" d="M293.073,440.865l97.708-69.821a59.6,59.6,0,0,0-7.054-12.47L285.677,429.2Z" transform="translate(-285.677 -358.574)" fill="#053849"/>
      </g>
      <g id="Group_66" data-name="Group 66" transform="translate(105.116 459.771)">
        <path id="Path_174" data-name="Path 174" d="M198.425,407.981l119.43,12.566.733-14.759-119.7-15.4A60.121,60.121,0,0,0,198.425,407.981Z" transform="translate(-197.993 -390.387)" fill="#053849"/>
      </g>
      <g id="Group_67" data-name="Group 67" transform="translate(291.453 357.69)">
        <path id="Path_175" data-name="Path 175" d="M279.323,395.227a7.653,7.653,0,0,1-6.157-13.8l44.262-29.079a7.651,7.651,0,1,1,8.4,12.787l-44.262,29.082A7.613,7.613,0,0,1,279.323,395.227Z" transform="translate(-269.716 -351.095)" fill="#fc7765"/>
      </g>
      <path id="Path_176" data-name="Path 176" d="M328.146,354.92,283.884,384a7.633,7.633,0,0,1-11.839-6.318,7.647,7.647,0,0,0,9.524,11.881l44.262-29.082a7.634,7.634,0,0,0,3.435-6.469A8.027,8.027,0,0,1,328.146,354.92Z" transform="translate(21.738 11.255)" fill="#fc7765" opacity="0.5" style="mix-blend-mode: multiply;isolation: isolate"/>
      <g id="Group_68" data-name="Group 68" transform="translate(168.291 401.944)">
        <path id="Path_177" data-name="Path 177" d="M284.761,386.656a7.708,7.708,0,0,1-2.458.236l-52.846-3.476a7.652,7.652,0,0,1,1.005-15.271l52.846,3.476a7.653,7.653,0,0,1,1.452,15.035Z" transform="translate(-222.31 -368.129)" fill="#fc7765"/>
      </g>
      <path id="Path_178" data-name="Path 178" d="M285.457,369.748a7.619,7.619,0,0,1-4.762,11.023,7.7,7.7,0,0,1-2.458.236l-52.846-3.476a7.631,7.631,0,0,1-2.723-.714,7.628,7.628,0,0,0,6.214,4.011l52.846,3.476a7.642,7.642,0,0,0,3.728-14.557Z" transform="translate(-53.444 36.403)" fill="#fc7765" opacity="0.5" style="mix-blend-mode: multiply;isolation: isolate"/>
      <path id="Path_179" data-name="Path 179" d="M323.893,388.181l-12.535-10.439a19.846,19.846,0,0,0-21.93-2.359l-9.948,5.18,2.055,3.242,9.659-5.027a16.045,16.045,0,0,1,17.716,1.9l12.452,10.363,8.129,7.628,3.172-2.265Z" transform="translate(37.339 41.793)" fill="#053849"/>
      <path id="Path_180" data-name="Path 180" d="M258.186,385.3a19.853,19.853,0,0,0-17.9,12.883L234.5,413.559l-3.723,12.023,3.876.408,3.466-11.19,5.747-15.268a16.027,16.027,0,0,1,14.46-10.408l9.142-.335.192-3.837Z" transform="translate(-40.488 60.698)" fill="#053849"/>
    </g>
  </g>
</svg>
